<svg width="1024" height="1024" viewBox="0 0 1024 1024" fill="none" xmlns="http://www.w3.org/2000/svg">
<rect width="1024" height="1024" fill="black"/>
<path d="M496.199 745.566L496.199 407.31C496.199 335.957 558.435 275.704 632.108 275.704C705.781 275.704 768 335.957 768 407.31C768 419.587 758.139 429.552 745.889 429.552C733.64 429.552 723.779 419.587 723.779 407.31C723.779 360.913 680.95 320.188 632.108 320.188C583.265 320.188 540.437 360.913 540.437 407.31V745.566C540.437 757.843 530.532 767.808 518.326 767.808C506.099 767.808 496.199 757.843 496.199 745.566Z" fill="#17C964"/>
<path d="M256 397.768C256 354.151 289.348 319.965 331.928 319.965C374.469 319.965 407.817 354.329 407.817 398.235V745.566C407.817 757.843 397.884 767.808 385.707 767.808C373.474 767.808 363.596 757.843 363.596 745.566V398.235C363.596 379.285 349.683 364.449 331.928 364.449C313.886 364.449 300.221 378.773 300.221 397.768C300.221 410.045 290.388 420.01 278.111 420.01C265.894 420.01 256 410.068 256 397.768Z" fill="#F31260"/>
<path d="M429.867 745.566V256.242C429.867 243.964 439.745 234 451.978 234C464.2 234 474.089 243.964 474.089 256.242L474.089 745.566C474.089 757.843 464.2 767.808 451.978 767.808C439.745 767.808 429.867 757.843 429.867 745.566Z" fill="#F5A524"/>
<rect y="768" width="1024" height="256" fill="white"/>
</svg>
