<svg width="1024" height="1024" viewBox="0 0 1024 1024" fill="none" xmlns="http://www.w3.org/2000/svg">
<g clip-path="url(#clip0_36_2)">
<rect width="1024" height="1024" rx="512" fill="black"/>
<path d="M496.199 756.566L496.199 418.31C496.199 346.957 558.435 286.704 632.108 286.704C705.781 286.704 768 346.957 768 418.31C768 430.587 758.139 440.552 745.889 440.552C733.64 440.552 723.779 430.587 723.779 418.31C723.779 371.913 680.95 331.188 632.108 331.188C583.265 331.188 540.437 371.913 540.437 418.31V756.566C540.437 768.843 530.532 778.808 518.326 778.808C506.099 778.808 496.199 768.843 496.199 756.566Z" fill="#17C964"/>
<path d="M256 408.768C256 365.151 289.348 330.965 331.928 330.965C374.469 330.965 407.817 365.329 407.817 409.235V756.566C407.817 768.843 397.884 778.808 385.707 778.808C373.474 778.808 363.596 768.843 363.596 756.566V409.235C363.596 390.285 349.683 375.449 331.928 375.449C313.886 375.449 300.221 389.773 300.221 408.768C300.221 421.045 290.388 431.01 278.111 431.01C265.894 431.01 256 421.068 256 408.768Z" fill="#F31260"/>
<path d="M429.867 756.566V267.242C429.867 254.964 439.745 245 451.978 245C464.2 245 474.089 254.964 474.089 267.242L474.089 756.566C474.089 768.843 464.2 778.808 451.978 778.808C439.745 778.808 429.867 768.843 429.867 756.566Z" fill="#F5A524"/>
<rect y="779" width="1024" height="256" fill="white"/>
</g>
<defs>
<clipPath id="clip0_36_2">
<rect width="1024" height="1024" rx="512" fill="white"/>
</clipPath>
</defs>
</svg>
